<?xml version="1.0" encoding="UTF-8"?> <svg xmlns="http://www.w3.org/2000/svg" width="100" height="100" viewBox="0 0 100 100" fill="none"><mask id="path-1-inside-1_595_821" fill="white"><path d="M0 12C0 5.37258 5.37258 0 12 0H88C94.6274 0 100 5.37258 100 12V88C100 94.6274 94.6274 100 88 100H12C5.37258 100 0 94.6274 0 88V12Z"></path></mask><path d="M0 12C0 5.37258 5.37258 0 12 0H88C94.6274 0 100 5.37258 100 12V88C100 94.6274 94.6274 100 88 100H12C5.37258 100 0 94.6274 0 88V12Z" fill="#283443"></path><path d="M12 4H88V-4H12V4ZM96 12V88H104V12H96ZM88 96H12V104H88V96ZM4 88V12H-4V88H4ZM12 96C7.58172 96 4 92.4183 4 88H-4C-4 96.8366 3.16345 104 12 104V96ZM96 88C96 92.4183 92.4183 96 88 96V104C96.8366 104 104 96.8366 104 88H96ZM88 4C92.4183 4 96 7.58172 96 12H104C104 3.16344 96.8366 -4 88 -4V4ZM12 -4C3.16344 -4 -4 3.16345 -4 12H4C4 7.58172 7.58172 4 12 4V-4Z" fill="#9198A1" mask="url(#path-1-inside-1_595_821)"></path><path d="M44.5972 53.2066L44.6163 53.1875L44.6349 53.1678C45.4715 52.283 46.0137 51.0832 46.0137 49.7526C46.0137 48.4405 45.4639 47.2429 44.6349 46.3661L44.6163 46.3465L44.5972 46.3274L30.5951 32.2982C28.6947 30.3941 25.5899 30.3941 23.6896 32.2982C21.7913 34.2001 21.7913 37.2755 23.6896 39.1774L34.2461 49.7543L23.691 60.3551C23.6905 60.3557 23.6899 60.3562 23.6894 60.3568C23.2382 60.8083 22.8804 61.3443 22.6362 61.934C22.3918 62.5244 22.266 63.1572 22.266 63.7962C22.266 64.4351 22.3918 65.0679 22.6362 65.6583C22.8807 66.2488 23.239 66.7853 23.691 67.2372C24.6711 68.2184 25.9117 68.6567 27.1423 68.6567C28.3735 68.6567 29.6148 68.218 30.5951 67.2358L44.5972 53.2066ZM54.046 68.9441H73.0003C75.6735 68.9441 77.8696 66.7932 77.8696 64.0693C77.8696 61.3872 75.6866 59.1945 73.0003 59.1945H54.046C51.3597 59.1945 49.1767 61.3872 49.1767 64.0693C49.1767 66.7932 51.3727 68.9441 54.046 68.9441Z" stroke="#9198A1" stroke-width="4"></path></svg> 