<?xml version="1.0" encoding="UTF-8"?> <svg xmlns="http://www.w3.org/2000/svg" width="127" height="56" viewBox="0 0 127 56" fill="none"><path d="M13.5322 54.8H14.3322V54V53.2151V52.8591L14.0677 52.6208C12.8525 51.5258 11.7053 50.1873 10.629 48.5981C9.59169 47.0513 8.65659 45.2406 7.8275 43.1599C7.03476 41.1216 6.39637 38.8341 5.91576 36.2939C5.46967 33.7644 5.24479 30.9843 5.24479 27.9509C5.24479 24.9176 5.46967 22.1374 5.91576 19.608C6.39627 17.0684 7.03428 14.7988 7.82585 12.7952C8.65489 10.7467 9.59041 8.95055 10.629 7.40179C11.7054 5.81269 12.8525 4.47418 14.0677 3.37922L14.3322 3.1409V2.78491V2V1.2H13.5322H11.3825H11.0647L10.8335 1.41804C9.71682 2.47136 8.59526 3.76772 7.46728 5.29972C6.31404 6.833 5.27517 8.6894 4.34473 10.8582L4.34471 10.8582L4.34239 10.8637C3.43917 13.0134 2.69285 15.5002 2.09859 18.3179C1.4985 21.1633 1.20195 24.3762 1.20195 27.9509C1.20195 31.5257 1.4985 34.7386 2.09859 37.584C2.69277 40.4013 3.43869 42.9028 4.34067 45.0832L4.34301 45.0887C5.27352 47.291 6.31221 49.1802 7.46478 50.746C8.59502 52.2814 9.72047 53.5661 10.8431 54.5909L11.0722 54.8H11.3825H13.5322ZM19.5015 6.91715L18.8347 6.38705L18.3475 7.08588L13.5595 13.9538L13.1437 14.5502L13.6978 15.021L14.9681 16.1002L15.5407 16.5867L16.0621 16.0457L21.9249 9.96271L22.5357 9.32898L21.8467 8.7813L19.5015 6.91715ZM56.4817 42.6256L57.1759 43.8311L57.8687 42.6249L77.5091 8.43243L78.1975 7.23396H76.8154H37.4857H36.1019L36.7924 8.43318L56.4817 42.6256ZM96.0369 7.08588L95.5497 6.38705L94.8828 6.91715L92.5377 8.7813L91.8487 9.32898L92.4595 9.96271L98.3223 16.0457L98.8437 16.5867L99.4163 16.1002L100.687 15.021L101.241 14.5502L100.825 13.9538L96.0369 7.08588ZM112.672 54V54.8H113.472H115.621H115.932L116.161 54.5909C117.283 53.5661 118.409 52.2814 119.539 50.746C120.693 49.1786 121.715 47.2883 122.613 45.0858C123.549 42.9037 124.311 40.4012 124.905 37.584C125.505 34.7386 125.802 31.5257 125.802 27.9509C125.802 24.3762 125.505 21.1633 124.905 18.3179C124.311 15.5003 123.548 13.0124 122.612 10.861C121.714 8.69206 120.691 6.83453 119.537 5.29972C118.409 3.76772 117.287 2.47136 116.17 1.41804L115.939 1.2H115.621H113.472H112.672V2V2.78491V3.1409L112.936 3.37922C114.149 4.4721 115.278 5.80797 116.321 7.39414L116.326 7.40189L116.331 7.40953C117.398 8.95361 118.331 10.7446 119.126 12.7882L119.129 12.7952L119.132 12.8022C119.954 14.8011 120.591 17.0664 121.038 19.6032L121.038 19.6032L121.04 19.6128C121.518 22.14 121.759 24.9185 121.759 27.9509C121.759 30.9834 121.518 33.7618 121.04 36.2891L121.04 36.2891L121.038 36.2987C120.591 38.8358 119.953 41.1191 119.13 43.1528L119.128 43.1597L119.125 43.1667C118.33 45.2426 117.397 47.0484 116.331 48.5905L116.326 48.5981L116.321 48.6059C115.278 50.192 114.149 51.5279 112.936 52.6208L112.672 52.8591V53.2151V54ZM42.2403 10.7962H72.0629L57.174 36.7453L42.2403 10.7962Z" fill="black" stroke="black" stroke-width="1.6"></path></svg> 