<?xml version="1.0" encoding="UTF-8"?> <svg xmlns="http://www.w3.org/2000/svg" width="93" height="60" viewBox="0 0 93 60" fill="none"><rect y="15" width="93" height="45" rx="16.8" fill="#FFE0D2"></rect><path d="M21.7966 46.4958C20.3883 46.4958 19.066 46.2296 17.8295 45.6973C16.593 45.1821 15.5025 44.4608 14.558 43.5334C13.6306 42.5889 12.9008 41.4984 12.3684 40.2619C11.8532 39.0254 11.5956 37.7031 11.5956 36.2949C11.5956 34.8695 11.8532 33.5471 12.3684 32.3278C12.9008 31.0913 13.6306 30.0094 14.558 29.0821C15.5025 28.1375 16.593 27.4077 17.8295 26.8925C19.066 26.3601 20.3883 26.0939 21.7966 26.0939C23.2219 26.0939 24.5443 26.3601 25.7636 26.8925C27.0001 27.4077 28.082 28.1375 29.0094 29.0821C29.9539 30.0094 30.6838 31.0913 31.199 32.3278C31.7313 33.5471 31.9975 34.8695 31.9975 36.2949C31.9975 37.7031 31.7313 39.0254 31.199 40.2619C30.6838 41.4984 29.9539 42.5889 29.0094 43.5334C28.082 44.4608 27.0001 45.1821 25.7636 45.6973C24.5443 46.2296 23.2219 46.4958 21.7966 46.4958ZM12.6775 36.2949H21.7966V27.1758C20.5257 27.1758 19.3408 27.4162 18.2417 27.8971C17.1426 28.3608 16.1723 29.0134 15.3308 29.8549C14.5065 30.6792 13.8539 31.6409 13.373 32.74C12.9094 33.8391 12.6775 35.024 12.6775 36.2949Z" fill="black"></path><path d="M48.0285 41.5757C48.6982 42.4687 49.2993 43.0955 49.8317 43.4561C50.3812 43.8168 50.802 43.9971 51.0939 43.9971C51.403 43.9971 51.6778 43.9713 51.9183 43.9198C52.1587 43.8683 52.3819 43.8082 52.588 43.7395V45.5427C52.3991 45.6457 52.1415 45.723 51.8152 45.7745C51.5061 45.8432 51.197 45.8776 50.8878 45.8776C50.5272 45.8776 50.1322 45.8003 49.7029 45.6457C49.2736 45.5084 48.8013 45.2336 48.2861 44.8214C47.7709 44.3921 47.187 43.7653 46.5344 42.9409C45.9162 43.7309 45.3409 44.3406 44.8085 44.7699C44.2933 45.1992 43.8124 45.4912 43.3659 45.6457C42.9366 45.8003 42.5244 45.8776 42.1294 45.8776C41.8203 45.8776 41.5026 45.8432 41.1763 45.7745C40.8672 45.723 40.6096 45.6457 40.4035 45.5427V43.7395C40.5066 43.7738 40.7041 43.8254 40.996 43.8941C41.288 43.9628 41.5541 43.9971 41.7946 43.9971C42.2067 43.9971 42.6704 43.8254 43.1856 43.4819C43.7008 43.1213 44.3019 42.4858 44.9888 41.5757C44.0958 40.6311 43.3659 39.6866 42.7992 38.7421C42.2497 37.7975 41.9749 36.853 41.9749 35.9085C41.9749 35.0841 42.1638 34.3543 42.5416 33.7189C42.9194 33.0663 43.4432 32.5511 44.113 32.1733C44.7999 31.7954 45.607 31.6065 46.5344 31.6065C47.4618 31.6065 48.2603 31.7954 48.9301 32.1733C49.617 32.5511 50.1408 33.0663 50.5014 33.7189C50.8793 34.3543 51.0682 35.0841 51.0682 35.9085C51.0682 36.561 50.9222 37.2222 50.6302 37.892C50.3383 38.5446 49.9605 39.18 49.4968 39.7982C49.0503 40.4165 48.5609 41.0089 48.0285 41.5757Z" fill="black"></path><path d="M71.2034 46.4958C69.7952 46.4958 68.4729 46.2296 67.2364 45.6973C65.9999 45.1821 64.9094 44.4608 63.9649 43.5334C63.0375 42.5889 62.3076 41.4984 61.7753 40.2619C61.2601 39.0254 61.0025 37.7031 61.0025 36.2949C61.0025 34.8695 61.2601 33.5471 61.7753 32.3278C62.3076 31.0913 63.0375 30.0094 63.9649 29.0821C64.9094 28.1375 65.9999 27.4077 67.2364 26.8925C68.4729 26.3601 69.7952 26.0939 71.2034 26.0939C72.6288 26.0939 73.9512 26.3601 75.1705 26.8925C76.407 27.4077 77.4889 28.1375 78.4162 29.0821C79.3608 30.0094 80.0906 31.0913 80.6058 32.3278C81.1382 33.5471 81.4044 34.8695 81.4044 36.2949C81.4044 37.7031 81.1382 39.0254 80.6058 40.2619C80.0906 41.4984 79.3608 42.5889 78.4162 43.5334C77.4889 44.4608 76.407 45.1821 75.1705 45.6973C73.9512 46.2296 72.6288 46.4958 71.2034 46.4958ZM62.0844 36.2949H71.2034V27.1758C69.9326 27.1758 68.7476 27.4162 67.6486 27.8971C66.5495 28.3608 65.5792 29.0134 64.7377 29.8549C63.9133 30.6792 63.2608 31.6409 62.7799 32.74C62.3162 33.8391 62.0844 35.024 62.0844 36.2949Z" fill="black"></path><path d="M44.5461 1.9442C45.0043 -0.153338 47.9957 -0.153348 48.4539 1.94419L52.032 18.3232C52.3045 19.5703 51.3546 20.75 50.0781 20.75H42.9219C41.6454 20.75 40.6955 19.5703 40.968 18.3232L44.5461 1.9442Z" fill="#FF6357"></path></svg> 